HIERARCHY
ROOT RootJoint
{
    OFFSET   0.000000   0.000000   0.000000
    CHANNELS 6 Xposition Yposition Zposition Xrotation Yrotation Zrotation
    JOINT pelvis_lowerback
    {
        OFFSET   0.000000   0.093605   0.000000
        CHANNELS 3 Xrotation Yrotation Zrotation
        JOINT lowerback_torso
        {
            OFFSET   0.000000   0.100000   0.000000
            CHANNELS 3 Xrotation Yrotation Zrotation
            JOINT torso_head
            {
                OFFSET   0.000000   0.282350   0.000000
                CHANNELS 3 Xrotation Yrotation Zrotation
                End Site
                {
                    OFFSET   0.000000   0.192650   0.000000
                }
            }
            JOINT rTorso_Clavicle
            {
                OFFSET  -0.001000   0.157500   0.000000
                CHANNELS 3 Xrotation Yrotation Zrotation
                JOINT rShoulder
                {
                    OFFSET  -0.117647   0.000000   0.000000
                    CHANNELS 3 Xrotation Yrotation Zrotation
                    JOINT rElbow
                    {
                        OFFSET  -0.245000   0.000000   0.000000
                        CHANNELS 3 Xrotation Yrotation Zrotation
                        JOINT rWrist
                        {
                            OFFSET  -0.240000   0.000000   0.000000
                            CHANNELS 3 Xrotation Yrotation Zrotation
                            End Site
                            {
                                OFFSET  -0.116353  -0.002500   0.000000
                            }
                        }
                    }
                }
            }
            JOINT lTorso_Clavicle
            {
                OFFSET   0.001000   0.157500   0.000000
                CHANNELS 3 Xrotation Yrotation Zrotation
                JOINT lShoulder
                {
                    OFFSET   0.117647   0.000000   0.000000
                    CHANNELS 3 Xrotation Yrotation Zrotation
                    JOINT lElbow
                    {
                        OFFSET   0.245000   0.000000   0.000000
                        CHANNELS 3 Xrotation Yrotation Zrotation
                        JOINT lWrist
                        {
                            OFFSET   0.240000   0.000000   0.000000
                            CHANNELS 3 Xrotation Yrotation Zrotation
                            End Site
                            {
                                OFFSET   0.116353  -0.002500   0.000000
                            }
                        }
                    }
                }
            }
        }
    }
    JOINT rHip
    {
        OFFSET  -0.100000  -0.051395   0.000000
        CHANNELS 3 Xrotation Yrotation Zrotation
        JOINT rKnee
        {
            OFFSET   0.000000  -0.410000   0.000000
            CHANNELS 3 Xrotation Yrotation Zrotation
            JOINT rAnkle
            {
                OFFSET   0.000000  -0.390000   0.000000
                CHANNELS 3 Xrotation Yrotation Zrotation
                JOINT rToeJoint
                {
                    OFFSET   0.000000  -0.050000   0.130000
                    CHANNELS 3 Xrotation Yrotation Zrotation
                    End Site
                    {
                        OFFSET  -0.010000   0.002000   0.060000
                    }
                }
            }
        }
    }
    JOINT lHip
    {
        OFFSET   0.100000  -0.051395   0.000000
        CHANNELS 3 Xrotation Yrotation Zrotation
        JOINT lKnee
        {
            OFFSET   0.000000  -0.410000   0.000000
            CHANNELS 3 Xrotation Yrotation Zrotation
            JOINT lAnkle
            {
                OFFSET   0.000000  -0.390000   0.000000
                CHANNELS 3 Xrotation Yrotation Zrotation
                JOINT lToeJoint
                {
                    OFFSET   0.000000  -0.050000   0.130000
                    CHANNELS 3 Xrotation Yrotation Zrotation
                    End Site
                    {
                        OFFSET   0.010000   0.002000   0.060000
                    }
                }
            }
        }
    }
}
MOTION
Frames: 10
Frame Time:   0.008333
 -2.334726   0.922653   4.080146  23.124956   1.245469  -4.250367  13.587622   3.879465   3.899053  -7.844028  -3.202733   0.839744  -1.061229   1.023414  -4.083667 -16.798125  22.883748 -29.116027 -45.890840  21.303217  -3.859217   0.147124  39.283872  -0.051359   2.618960   0.183229  -9.689577 -14.253884 -21.351936  27.657399 -35.024422 -24.884240   7.715313   0.085391 -37.457199  -0.000062  -0.394333  -8.902269  12.787869 -39.571107  -7.892486  -5.037699  47.142826  -0.031824  -0.048108  -2.910938  -6.504533  10.398702  -3.893875   0.000925   0.024410 -41.248992   3.407449   8.737308  47.777561   0.021441   0.007284  11.869868   2.560556  -6.836839 -45.857008  -0.013010   0.005359
 -2.335101   0.937103   4.093900  23.458973   1.778879  -5.080902  11.192271   3.788942   4.846165  -7.443944  -3.487107   0.958808  -0.159274   0.943335  -4.235460 -16.046370  22.136035 -30.365435 -46.226214  21.265546  -4.377661   0.149408  37.740349  -0.042729   2.699798   0.110530 -10.013703 -13.559768 -20.387524  27.934327 -34.715845 -24.864211   8.020249   0.079259 -36.117034  -0.011731  -0.319320  -8.964171  12.591193 -37.862097  -8.219842  -4.151796  45.861936  -0.028190  -0.047778  -0.790452  -6.379008  10.930085  -2.957402   0.001535   0.022781 -39.519672   3.067275   9.172304  44.272597   0.016293  -0.005455  15.519491   2.470380  -7.527749 -44.049917  -0.008711   0.018983
 -2.335687   0.951346   4.107623  23.811715   2.361222  -5.929771   8.857066   3.582131   5.682869  -7.179366  -3.806195   0.938599   0.699484   0.705450  -4.299934 -15.298757  21.357809 -30.587527 -46.491427  21.060431  -4.796529   0.140169  36.406157  -0.036756   2.871096   0.469477 -10.638847 -12.829988 -19.545557  28.182760 -34.370826 -24.922655   8.335102   0.073964 -34.869357  -0.017587  -0.233143  -8.977407  12.256785 -36.229237  -8.520380  -3.257738  44.723015  -0.025056  -0.046751   1.191279  -6.244425  11.421612  -2.086798   0.002457   0.021389 -37.856211   2.794400   9.670856  40.729449   0.012582  -0.019320  19.233200   2.352459  -8.197465 -41.251149  -0.003384   0.040044
 -2.336067   0.965129   4.120877  24.133268   2.972102  -6.802789   6.688610   3.355059   6.492952  -6.896967  -4.107239   1.026380   1.487619   0.512938  -4.470667 -14.561364  20.595264 -30.894649 -46.716385  20.740505  -5.090648   0.129608  35.054023  -0.031473   2.966993   0.426006 -10.957156 -12.190405 -18.713148  28.410750 -34.069150 -24.878440   8.591077   0.068456 -33.678456  -0.022731  -0.176794  -8.898225  11.923826 -34.676185  -8.792101  -2.396055  43.708945  -0.022617  -0.044823   3.041094  -6.102093  11.875340  -1.287372   0.003682   0.019904 -36.314196   2.538663  10.209765  37.306769   0.010232  -0.031317  22.988504   2.233699  -8.843369 -37.452500   0.004986   0.067038
 -2.336179   0.978356   4.133608  24.420739   3.586254  -7.666611   4.689645   3.134115   7.282460  -6.609188  -4.371855   1.160330   2.235092   0.348332  -4.659389 -13.866399  19.875050 -31.200147 -46.917463  20.418081  -5.349565   0.118476  33.759981  -0.027831   3.024962   0.175449 -11.116284 -11.609746 -17.920212  28.616848 -33.790043 -24.790577   8.826105   0.062825 -32.549845  -0.027196  -0.141364  -8.733090  11.609197 -33.212415  -9.023779  -1.596247  42.792508  -0.020708  -0.042207   4.766817  -5.956058  12.292929  -0.557393   0.004961   0.018211 -34.907964   2.308375  10.751105  34.025593   0.008791  -0.040570  26.777116   2.084927  -9.472302 -32.762873   0.019856   0.095598
 -2.336023   0.991010   4.145792  24.671668   4.189814  -8.501490   2.856104   2.925853   8.040804  -6.316724  -4.599725   1.318771   2.940606   0.205705  -4.846315 -13.218531  19.200890 -31.487730 -47.103054  20.115569  -5.584219   0.107063  32.542604  -0.025398   3.066778  -0.140895 -11.218429 -11.077256 -17.172509  28.801035 -33.529730 -24.686852   9.045487   0.057158 -31.488930  -0.030761  -0.115667  -8.528303  11.315693 -31.838661  -9.216466  -0.870977  41.953880  -0.019171  -0.039159   6.376565  -5.809116  12.676783   0.109325   0.006112   0.016349 -33.638128   2.100344  11.266936  30.936263   0.007801  -0.046660  30.528251   1.890772 -10.086457 -27.967112   0.039763   0.115327
 -2.335630   1.003086   4.157434  24.886139   4.772312  -9.300696   1.177949   2.732266   8.763732  -6.017596  -4.793937   1.491824   3.603640   0.082262  -5.025732 -12.616113  18.571125 -31.754440 -47.276602  19.838115  -5.796139   0.095666  31.403828  -0.023646   3.101817  -0.467153 -11.294080 -10.587192 -16.469629  28.964798 -33.286715 -24.579606   9.250494   0.051581 -30.495948  -0.033334  -0.093308  -8.313896  11.040909 -30.553231  -9.374860  -0.218173  41.180378  -0.017881  -0.035888   7.877981  -5.663272  13.029498   0.718130   0.007028   0.014407 -32.491317   1.911081  11.752742  28.050017   0.007074  -0.049958  34.028154   1.672176 -10.649064 -23.160852   0.061234   0.124531
 -2.334659   1.014392   4.167617  25.093816   5.158201  -9.062088  -0.194291   2.618530   8.205913  -5.730432  -4.979130   1.691316   4.162134   0.060496  -4.975031 -12.271998  17.920075 -31.787603 -47.304069  19.869585  -5.963712   0.085455  30.113149  -0.020332   3.073956  -0.892958 -11.435864 -10.263007 -15.902176  28.980452 -33.016834 -24.729332   9.571916   0.047903 -29.270517  -0.034069  -0.083558  -8.161607  11.013736 -29.874500  -9.084187  -0.705929  40.530733  -0.016673  -0.030455   9.728066  -5.607087  13.240624   1.389478   0.008702   0.010166 -32.090907   2.267509  11.283313  27.644473   0.005247  -0.041311  32.959850   1.984875 -11.177877 -19.040716   0.084392   0.119573
 -2.333589   1.025190   4.177060  25.206008   5.388660  -8.609804  -1.366272   2.562664   7.521735  -5.382689  -5.127118   1.752147   4.691293   0.044838  -4.933512 -11.927911  17.332170 -31.822741 -47.323367  19.924999  -6.108529   0.074659  28.918494  -0.015700   3.045446  -1.303184 -11.566318  -9.965795 -15.367678  28.945528 -32.768758 -24.855456   9.861538   0.042657 -28.121632  -0.032913  -0.088766  -7.960562  11.081586 -29.333985  -8.755694  -1.410602  39.795827  -0.015685  -0.025000  11.458914  -5.558316  13.429177   2.046166   0.009263   0.006052 -31.749531   2.646380  10.699695  27.657439   0.004240  -0.033022  31.948009   2.284219 -11.668365 -15.520757   0.093603   0.105818
 -2.332602   1.035484   4.185911  25.255366   5.504608  -8.109929  -2.388942   2.541551   6.835706  -4.990406  -5.250931   1.751471   5.191047   0.029843  -4.899119 -11.582593  16.802094 -31.865676 -47.334804  19.996127  -6.230989   0.064151  27.811854  -0.010666   3.026210  -1.653494 -11.661978  -9.679823 -14.862831  28.875023 -32.534396 -24.957642  10.111268   0.036561 -27.045838  -0.030761  -0.099928  -7.743487  11.142827 -28.906333  -8.443657  -2.148529  39.042233  -0.014605  -0.019858  13.071340  -5.511650  13.601550   2.641166   0.008908   0.002686 -31.419833   2.998408  10.159806  27.753057   0.003434  -0.026338  31.011717   2.571357 -12.121021 -12.290305   0.094867   0.089897
